<svg height="32" width="32" xmlns="http://www.w3.org/2000/svg"><g font-family="sans-serif"><path d="M23.56 13.6a.5.5 0 1 0 .205.98 3.747 3.747 0 0 1 3.902 5.726 3.75 3.75 0 0 1-3.836 1.63.5.5 0 1 0-.187.98 4.753 4.753 0 0 0 4.86-2.06 4.755 4.755 0 0 0-.047-5.28 4.749 4.749 0 0 0-4.895-1.977z" style="line-height:normal;text-indent:0;text-align:start;text-decoration-line:none;text-decoration-style:solid;text-decoration-color:#000;text-transform:none;isolation:auto;mix-blend-mode:normal" overflow="visible" fill="#a9c3c2"/><path d="M24.268 13.505a4.758 4.758 0 0 0-.707.094.5.5 0 1 0 .204.98c.244-.05.488-.068.73-.07v-1c-.075 0-.15-.01-.226-.005zm-.537 8.42a.5.5 0 0 0-.087.992c.284.054.57.073.85.075v-.998a3.65 3.65 0 0 1-.663-.06.5.5 0 0 0-.1-.01z" style="line-height:normal;text-indent:0;text-align:start;text-decoration-line:none;text-decoration-style:solid;text-decoration-color:#000;text-transform:none;isolation:auto;mix-blend-mode:normal" overflow="visible" fill="#a2bab9"/><path d="M12.217 11.5h12V25h-12v-6.832l.05-.066-.05-.04z" style="line-height:normal;text-indent:0;text-align:start;text-decoration-line:none;text-decoration-style:solid;text-decoration-color:#000;text-transform:none;isolation:auto;mix-blend-mode:normal" overflow="visible" fill="#c3d5d4"/><path d="m5.508 13.545 6.71 5.1v4.125l-7.573-8.33c.133-.1.27-.195.39-.317.18-.18.337-.374.473-.578z" style="line-height:normal;text-indent:0;text-align:start;text-decoration-line:none;text-decoration-style:solid;text-decoration-color:#000;text-transform:none;isolation:auto;mix-blend-mode:normal" overflow="visible" fill="#c3d5d4"/><path d="M11.8 18.328v3.984l.417.457v-4.126zm-6.292-4.784c-.136.204-.293.4-.473.58-.12.122-.257.215-.39.317l.246.27c.155-.098.304-.207.438-.34.188-.19.335-.4.452-.62z" style="line-height:normal;text-indent:0;text-align:start;text-decoration-line:none;text-decoration-style:solid;text-decoration-color:#000;text-transform:none;isolation:auto;mix-blend-mode:normal" overflow="visible" fill="#bacbca"/><path d="M5.475 11.02c.606 1.032.464 2.274-.365 3.103-.83.83-2.082.97-3.11.376z" style="line-height:normal;text-indent:0;text-align:start;text-decoration-line:none;text-decoration-style:solid;text-decoration-color:#000;text-transform:none;isolation:auto;mix-blend-mode:normal" overflow="visible" fill="#a9c3c2"/><path d="M17.485 11.5v2.494a.5.5 0 1 0 1 0V11.5z" style="line-height:normal;text-indent:0;text-align:start;text-decoration-line:none;text-decoration-style:solid;text-decoration-color:#000;text-transform:none;isolation:auto;mix-blend-mode:normal" overflow="visible" fill="#bacbca" fill-rule="evenodd"/><path d="M18.21 6.5a.5.5 0 0 0-.492.507v6.986a.5.5 0 1 0 1 0V7.007a.5.5 0 0 0-.508-.508z" style="line-height:normal;text-indent:0;text-align:start;text-decoration-line:none;text-decoration-style:solid;text-decoration-color:#000;text-transform:none;isolation:auto;mix-blend-mode:normal" overflow="visible" fill="#a9c3c2" fill-rule="evenodd"/></g></svg>